<svg width="26" height="26" viewBox="0 0 26 26" fill="none" xmlns="http://www.w3.org/2000/svg">
<path d="M9.89593 22.5043V19.1918C9.89593 18.3462 10.5864 17.6607 11.4382 17.6607H14.5519C14.961 17.6607 15.3532 17.822 15.6425 18.1091C15.9317 18.3962 16.0942 18.7857 16.0942 19.1918V22.5043C16.0916 22.8558 16.2305 23.1939 16.48 23.4434C16.7295 23.6929 17.069 23.8332 17.4231 23.8332H19.5474C20.5395 23.8357 21.4919 23.4463 22.1944 22.7507C22.8968 22.0552 23.2916 21.1107 23.2916 20.1258V10.6889C23.2916 9.89334 22.9363 9.13867 22.3216 8.62823L15.0951 2.8987C13.8381 1.89411 12.037 1.92655 10.8174 2.97573L3.75585 8.62823C3.11205 9.12362 2.72727 9.88053 2.70825 10.6889V20.1162C2.70825 22.169 4.38458 23.8332 6.45244 23.8332H8.52823C9.26375 23.8332 9.8615 23.2441 9.86683 22.5139L9.89593 22.5043Z" fill="white"/>
</svg>
