<svg width="27" height="26" viewBox="0 0 27 26" fill="none" xmlns="http://www.w3.org/2000/svg">
<path fill-rule="evenodd" clip-rule="evenodd" d="M18.0048 8.91909C18.0048 11.4646 15.9755 13.5057 13.4447 13.5057C10.9139 13.5057 8.88464 11.4646 8.88464 8.91909C8.88464 6.37262 10.9139 4.3335 13.4447 4.3335C15.9755 4.3335 18.0048 6.37262 18.0048 8.91909ZM13.4447 21.6668C9.72759 21.6668 6.55368 21.0775 6.55368 18.7203C6.55368 16.3622 9.70721 15.7514 13.4447 15.7514C17.1618 15.7514 20.3357 16.3407 20.3357 18.6989C20.3357 21.0561 17.1822 21.6668 13.4447 21.6668ZM19.9534 9.00182C19.9534 10.2994 19.5664 11.5083 18.8874 12.5132C18.8175 12.6166 18.8796 12.7562 19.0028 12.7776C19.1726 12.8069 19.3481 12.8235 19.5266 12.8283C21.3066 12.8752 22.9042 11.7229 23.3456 9.98821C23.9994 7.4115 22.0797 5.09822 19.6353 5.09822C19.3695 5.09822 19.1153 5.12651 18.868 5.17724C18.834 5.18505 18.7981 5.20066 18.7787 5.23091C18.7555 5.26798 18.7729 5.31774 18.7962 5.34994C19.5305 6.38511 19.9534 7.64761 19.9534 9.00182ZM22.9013 14.6388C24.0974 14.8739 24.884 15.3539 25.21 16.0515C25.4855 16.6242 25.4855 17.2887 25.21 17.8604C24.7114 18.9424 23.1041 19.2897 22.4794 19.3795C22.3504 19.399 22.2466 19.2868 22.2601 19.157C22.5793 16.1589 20.0407 14.7373 19.384 14.4105C19.3559 14.3958 19.3501 14.3734 19.353 14.3597C19.3549 14.35 19.3666 14.3344 19.3879 14.3314C20.809 14.3051 22.3368 14.5002 22.9013 14.6388ZM7.47345 12.8283C7.65194 12.8234 7.82654 12.8078 7.99726 12.7775C8.12046 12.7561 8.18254 12.6165 8.1127 12.5131C7.43368 11.5082 7.04665 10.2993 7.04665 9.00172C7.04665 7.64751 7.46957 6.38501 8.20388 5.34984C8.22716 5.31764 8.24365 5.26788 8.22134 5.23081C8.20194 5.20154 8.16508 5.18495 8.1321 5.17715C7.88377 5.12641 7.62963 5.09812 7.36384 5.09812C4.91939 5.09812 2.99972 7.4114 3.65449 9.98811C4.09585 11.7228 5.69347 12.8751 7.47345 12.8283ZM7.6466 14.3592C7.64951 14.3738 7.64369 14.3953 7.61653 14.4109C6.95886 14.7377 4.42032 16.1592 4.73945 19.1565C4.75303 19.2872 4.65021 19.3984 4.5212 19.3799C3.89651 19.2901 2.28918 18.9428 1.79059 17.8608C1.51414 17.2881 1.51414 16.6246 1.79059 16.0519C2.11652 15.3543 2.90224 14.8743 4.09827 14.6382C4.66379 14.5006 6.1906 14.3055 7.61265 14.3318C7.63399 14.3348 7.64466 14.3504 7.6466 14.3592Z" fill="white"/>
</svg>
