<svg width="27" height="26" viewBox="0 0 27 26" fill="currentColor" xmlns="http://www.w3.org/2000/svg">
<path fill-rule="evenodd" clip-rule="evenodd" d="M22.5343 8.29756C23.2602 8.85981 23.7054 9.69506 23.7812 10.604L23.7921 10.8217V19.6065C23.7921 21.8706 22.0035 23.7123 19.7621 23.8315H17.6062C16.576 23.8109 15.7429 23.0092 15.6671 22.0017L15.6562 21.849V18.7517C15.6562 18.4148 15.406 18.1342 15.0712 18.079L14.9737 18.0681H12.0802C11.7346 18.079 11.4529 18.3281 11.4096 18.6531L11.3987 18.7517V21.8392C11.3987 21.9031 11.3868 21.979 11.3771 22.0331L11.3662 22.0559L11.3543 22.1306C11.2254 23.0526 10.4671 23.7556 9.52457 23.8217L9.38374 23.8315H7.44457C5.18041 23.8315 3.32791 22.0559 3.20874 19.8231V10.8217C3.21849 9.89981 3.62041 9.04398 4.29207 8.44815L11.0412 3.02065C12.4171 1.92756 14.3454 1.88423 15.7635 2.89065L15.9379 3.02065L22.5343 8.29756ZM22.2743 19.7798L22.2862 19.6065V10.8315C22.2743 10.3667 22.0804 9.93231 21.7446 9.6084L21.6037 9.48815L14.9954 4.20148C14.1721 3.54065 13.0021 3.50923 12.1354 4.08231L11.9718 4.20148L5.38516 9.5109C5.00707 9.79148 4.77957 10.214 4.72541 10.6581L4.71349 10.8315V19.6065C4.71349 21.0473 5.84016 22.2281 7.27124 22.3148H9.38374C9.62207 22.3148 9.82791 22.1534 9.85932 21.9259L9.88207 21.7309L9.89291 21.6756V18.7517C9.89291 17.5926 10.7812 16.6501 11.9187 16.5623H14.9737C16.1318 16.5623 17.0743 17.4517 17.1621 18.5892V21.849C17.1621 22.0765 17.3246 22.2726 17.5412 22.3148H19.5552C21.0068 22.3148 22.1877 21.2001 22.2743 19.7798Z" fill="#F8F8F8"/>
</svg>
