<svg width="12" height="12" viewBox="0 0 12 12" fill="none" xmlns="http://www.w3.org/2000/svg">
<path fill-rule="evenodd" clip-rule="evenodd" d="M5.6595 11H3.2165C1.9945 11 1 10.0055 1 8.7825V3.218C1 1.995 1.9945 1 3.2165 1H5.654C6.877 1 7.872 1.995 7.872 3.218V3.684C7.872 3.891 7.704 4.059 7.497 4.059C7.29 4.059 7.122 3.891 7.122 3.684V3.218C7.122 2.408 6.4635 1.75 5.654 1.75H3.2165C2.408 1.75 1.75 2.408 1.75 3.218V8.7825C1.75 9.592 2.408 10.25 3.2165 10.25H5.6595C6.4655 10.25 7.122 9.594 7.122 8.788V8.3165C7.122 8.1095 7.29 7.9415 7.497 7.9415C7.704 7.9415 7.872 8.1095 7.872 8.3165V8.788C7.872 10.008 6.879 11 5.6595 11Z" fill="white"/>
<mask id="mask0_5125_16999" style="mask-type:luminance" maskUnits="userSpaceOnUse" x="4" y="5" width="8" height="2">
<path fill-rule="evenodd" clip-rule="evenodd" d="M4.49805 5.625H11.2685V6.375H4.49805V5.625Z" fill="white"/>
</mask>
<g mask="url(#mask0_5125_16999)">
<path fill-rule="evenodd" clip-rule="evenodd" d="M10.8935 6.375H4.87305C4.66605 6.375 4.49805 6.207 4.49805 6C4.49805 5.793 4.66605 5.625 4.87305 5.625H10.8935C11.1005 5.625 11.2685 5.793 11.2685 6C11.2685 6.207 11.1005 6.375 10.8935 6.375Z" fill="white"/>
</g>
<mask id="mask1_5125_16999" style="mask-type:luminance" maskUnits="userSpaceOnUse" x="9" y="4" width="3" height="4">
<path fill-rule="evenodd" clip-rule="evenodd" d="M9.05469 4.16748H11.2684V7.83286H9.05469V4.16748Z" fill="white"/>
</mask>
<g mask="url(#mask1_5125_16999)">
<path fill-rule="evenodd" clip-rule="evenodd" d="M9.42956 7.83286C9.33356 7.83286 9.23706 7.79636 9.16406 7.72236C9.01806 7.57536 9.01856 7.33836 9.16506 7.19236L10.3621 5.99986L9.16506 4.80786C9.01856 4.66186 9.01756 4.42486 9.16406 4.27786C9.31006 4.13086 9.54706 4.13086 9.69406 4.27686L11.1581 5.73436C11.2291 5.80436 11.2686 5.90036 11.2686 5.99986C11.2686 6.09936 11.2291 6.19536 11.1581 6.26536L9.69406 7.72336C9.62106 7.79636 9.52506 7.83286 9.42956 7.83286Z" fill="white"/>
</g>
</svg>
