<svg width="13" height="12" viewBox="0 0 13 12" fill="none" xmlns="http://www.w3.org/2000/svg">
<g id="fi-rr-moon" clip-path="url(#clip0_4543_8297)">
<path id="Vector" d="M7.99983 12C7.15958 11.9994 6.3288 11.8226 5.56111 11.481C4.79341 11.1395 4.10586 10.6408 3.54283 10.017C2.97555 9.39261 2.54754 8.65467 2.28721 7.85221C2.02687 7.04974 1.94016 6.20108 2.03283 5.36254C2.18223 4.05755 2.75153 2.83641 3.65501 1.88297C4.5585 0.929529 5.74726 0.295396 7.04233 0.0760434C7.87954 -0.0532692 8.73392 -0.0184557 9.55783 0.178543C9.77358 0.233973 9.97059 0.346045 10.1285 0.503164C10.2864 0.660282 10.3994 0.856739 10.4559 1.07221C10.5124 1.28767 10.5103 1.51432 10.4498 1.7287C10.3893 1.94307 10.2726 2.13739 10.1118 2.29154C7.83183 4.37454 8.02983 7.61354 10.5153 9.49654C10.6911 9.63448 10.8266 9.81699 10.9079 10.0251C10.9892 10.2332 11.0132 10.4593 10.9775 10.6798C10.9417 10.9003 10.8476 11.1072 10.7047 11.279C10.5619 11.4508 10.3756 11.5812 10.1653 11.6565C9.46623 11.885 8.7353 12.0009 7.99983 12ZM8.03783 1.00004C7.75711 0.999368 7.47676 1.0206 7.19933 1.06354C6.12109 1.2459 5.13126 1.77357 4.37884 2.56711C3.62641 3.36065 3.15211 4.37713 3.02733 5.46354C2.94933 6.16357 3.02122 6.87217 3.2382 7.54227C3.45519 8.21237 3.81231 8.82861 4.28583 9.35004C4.979 10.0899 5.87197 10.6127 6.85642 10.855C7.84086 11.0972 8.87447 11.0486 9.83183 10.715C9.8731 10.6996 9.90955 10.6735 9.93749 10.6394C9.96542 10.6053 9.98385 10.5645 9.99091 10.521C9.99796 10.4775 9.99339 10.4329 9.97766 10.3917C9.96193 10.3505 9.9356 10.3143 9.90133 10.2865C6.93683 8.04754 6.70133 4.04354 9.42733 1.56204C9.45861 1.533 9.48117 1.49581 9.49248 1.45465C9.50379 1.41349 9.50339 1.36999 9.49133 1.32904C9.48094 1.28559 9.45887 1.2458 9.42749 1.21398C9.39612 1.18217 9.35664 1.15954 9.31333 1.14854C8.89571 1.04781 8.46743 0.997945 8.03783 1.00004Z" fill="white"/>
</g>
<defs>
<clipPath id="clip0_4543_8297">
<rect width="12" height="12" fill="white" transform="translate(0.5)"/>
</clipPath>
</defs>

</svg>
