<svg width="10" height="10" viewBox="0 0 10 10" fill="none" xmlns="http://www.w3.org/2000/svg">
<g clip-path="url(#clip0_5125_1148)">
<path d="M7.91667 1.66667H6.25V1.25C6.25 0.918479 6.1183 0.600537 5.88388 0.366116C5.64946 0.131696 5.33152 0 5 0C4.66848 0 4.35054 0.131696 4.11612 0.366116C3.8817 0.600537 3.75 0.918479 3.75 1.25V1.66667H2.08333C1.531 1.66733 1.00148 1.88703 0.610925 2.27759C0.220367 2.66815 0.000661607 3.19767 0 3.75L0 7.91667C0.000661607 8.469 0.220367 8.99852 0.610925 9.38908C1.00148 9.77963 1.531 9.99934 2.08333 10H7.91667C8.469 9.99934 8.99852 9.77963 9.38908 9.38908C9.77963 8.99852 9.99934 8.469 10 7.91667V3.75C9.99934 3.19767 9.77963 2.66815 9.38908 2.27759C8.99852 1.88703 8.469 1.66733 7.91667 1.66667ZM4.58333 1.25C4.58333 1.13949 4.62723 1.03351 4.70537 0.955372C4.78351 0.877232 4.88949 0.833333 5 0.833333C5.11051 0.833333 5.21649 0.877232 5.29463 0.955372C5.37277 1.03351 5.41667 1.13949 5.41667 1.25V2.08333C5.41667 2.19384 5.37277 2.29982 5.29463 2.37796C5.21649 2.4561 5.11051 2.5 5 2.5C4.88949 2.5 4.78351 2.4561 4.70537 2.37796C4.62723 2.29982 4.58333 2.19384 4.58333 2.08333V1.25ZM9.16667 7.91667C9.16667 8.24819 9.03497 8.56613 8.80055 8.80055C8.56613 9.03497 8.24819 9.16667 7.91667 9.16667H2.08333C1.75181 9.16667 1.43387 9.03497 1.19945 8.80055C0.965029 8.56613 0.833333 8.24819 0.833333 7.91667V3.75C0.833333 3.41848 0.965029 3.10054 1.19945 2.86612C1.43387 2.6317 1.75181 2.5 2.08333 2.5H3.82667C3.91152 2.74356 4.07006 2.95468 4.28031 3.10407C4.49056 3.25346 4.74208 3.33373 5 3.33373C5.25792 3.33373 5.50944 3.25346 5.71969 3.10407C5.92994 2.95468 6.08848 2.74356 6.17333 2.5H7.91667C8.24819 2.5 8.56613 2.6317 8.80055 2.86612C9.03497 3.10054 9.16667 3.41848 9.16667 3.75V7.91667ZM4.16667 4.16667H2.08333C1.97283 4.16667 1.86685 4.21057 1.78871 4.28871C1.71057 4.36685 1.66667 4.47283 1.66667 4.58333V7.91667C1.66667 8.02717 1.71057 8.13315 1.78871 8.21129C1.86685 8.28943 1.97283 8.33333 2.08333 8.33333H4.16667C4.27717 8.33333 4.38315 8.28943 4.46129 8.21129C4.53943 8.13315 4.58333 8.02717 4.58333 7.91667V4.58333C4.58333 4.47283 4.53943 4.36685 4.46129 4.28871C4.38315 4.21057 4.27717 4.16667 4.16667 4.16667ZM3.75 7.5H2.5V5H3.75V7.5ZM8.33333 6.25C8.33333 6.36051 8.28943 6.46649 8.21129 6.54463C8.13315 6.62277 8.02717 6.66667 7.91667 6.66667H5.83333C5.72283 6.66667 5.61685 6.62277 5.53871 6.54463C5.46057 6.46649 5.41667 6.36051 5.41667 6.25C5.41667 6.13949 5.46057 6.03351 5.53871 5.95537C5.61685 5.87723 5.72283 5.83333 5.83333 5.83333H7.91667C8.02717 5.83333 8.13315 5.87723 8.21129 5.95537C8.28943 6.03351 8.33333 6.13949 8.33333 6.25ZM8.33333 4.58333C8.33333 4.69384 8.28943 4.79982 8.21129 4.87796C8.13315 4.9561 8.02717 5 7.91667 5H5.83333C5.72283 5 5.61685 4.9561 5.53871 4.87796C5.46057 4.79982 5.41667 4.69384 5.41667 4.58333C5.41667 4.47283 5.46057 4.36685 5.53871 4.28871C5.61685 4.21057 5.72283 4.16667 5.83333 4.16667H7.91667C8.02717 4.16667 8.13315 4.21057 8.21129 4.28871C8.28943 4.36685 8.33333 4.47283 8.33333 4.58333ZM7.5 7.91667C7.5 8.02717 7.4561 8.13315 7.37796 8.21129C7.29982 8.28943 7.19384 8.33333 7.08333 8.33333H5.83333C5.72283 8.33333 5.61685 8.28943 5.53871 8.21129C5.46057 8.13315 5.41667 8.02717 5.41667 7.91667C5.41667 7.80616 5.46057 7.70018 5.53871 7.62204C5.61685 7.5439 5.72283 7.5 5.83333 7.5H7.08333C7.19384 7.5 7.29982 7.5439 7.37796 7.62204C7.4561 7.70018 7.5 7.80616 7.5 7.91667Z" fill="white"/>
</g>
<defs>
<clipPath id="clip0_5125_1148">
<rect width="10" height="10" fill="white"/>
</clipPath>
</defs>
</svg>
