<svg width="17" height="20" viewBox="0 0 17 20" fill="none" xmlns="http://www.w3.org/2000/svg">
<g id="Paper">
<path id="Paper_2" fill-rule="evenodd" clip-rule="evenodd" d="M10.9977 0.928083C10.9564 0.920715 10.9139 0.91687 10.8706 0.91687C10.8272 0.91687 10.7847 0.920715 10.7434 0.928083H4.74652C2.36286 0.928083 0.353516 2.86184 0.353516 5.22046V15.4871C0.353516 17.9793 2.27459 19.9539 4.74652 19.9539H12.4026C14.7537 19.9539 16.695 17.882 16.695 15.4871V6.703C16.695 6.51745 16.6233 6.33909 16.4948 6.20524L11.6408 1.14907C11.5053 1.00789 11.318 0.928083 11.1223 0.928083H10.9977ZM10.1518 2.36481L4.74652 2.36558C3.1447 2.36558 1.79102 3.66834 1.79102 5.22046V15.4871C1.79102 17.1941 3.07747 18.5164 4.74652 18.5164H12.4026C13.9381 18.5164 15.2575 17.1083 15.2575 15.4871L15.2569 7.60899L14.4179 7.61185C14.0982 7.61147 13.7344 7.61079 13.33 7.60987C11.6342 7.60628 10.2503 6.2771 10.1568 4.60395L10.1518 4.42341V2.36481ZM14.4703 6.17221L13.3332 6.17237C12.3696 6.17033 11.5893 5.38793 11.5893 4.42341V3.1713L14.4703 6.17221ZM10.6885 13.1908C11.0854 13.1908 11.4072 13.5126 11.4072 13.9096C11.4072 14.2734 11.1368 14.5742 10.786 14.6218L10.6885 14.6283H5.51635C5.11939 14.6283 4.7976 14.3065 4.7976 13.9096C4.7976 13.5457 5.06799 13.245 5.41881 13.1974L5.51635 13.1908H10.6885ZM9.45078 9.16371C9.45078 8.76676 9.12899 8.44496 8.73203 8.44496H5.51587L5.41833 8.45152C5.06751 8.49912 4.79712 8.79984 4.79712 9.16371C4.79712 9.56067 5.11891 9.88246 5.51587 9.88246H8.73203L8.82956 9.8759C9.18038 9.82831 9.45078 9.52759 9.45078 9.16371Z" fill="white"/>
</g>
</svg>
