<svg width="10" height="10" viewBox="0 0 10 10" fill="none" xmlns="http://www.w3.org/2000/svg">
<path fill-rule="evenodd" clip-rule="evenodd" d="M7.167 0H2.8325C1.13371 0 0 1.2163 0 2.958V7.042C0 8.78535 1.13068 10 2.8325 10H7.1665C8.86881 10 10 8.78533 10 7.042V2.958C10 1.21475 8.86889 0 7.167 0ZM2.8325 0.75H7.167C8.44225 0.75 9.25 1.61748 9.25 2.958V7.042C9.25 8.38258 8.44219 9.25 7.1665 9.25H2.8325C1.55738 9.25 0.75 8.38266 0.75 7.042V2.958C0.75 1.61919 1.56017 0.75 2.8325 0.75ZM3.41995 3.699C2.70188 3.699 2.11945 4.28186 2.11945 5C2.11945 5.71814 2.70188 6.301 3.41995 6.301C4.00803 6.301 4.50503 5.91057 4.66606 5.37499L5.7156 5.37495V5.92575L5.71902 5.97664C5.74385 6.15967 5.90075 6.30075 6.0906 6.30075C6.29771 6.30075 6.4656 6.13286 6.4656 5.92575V5.37492L7.1298 5.3749L7.12995 5.926L7.13337 5.97689C7.1582 6.15992 7.3151 6.301 7.50495 6.301C7.71206 6.301 7.87995 6.13311 7.87995 5.926V5L7.87653 4.94911C7.8517 4.76608 7.6948 4.625 7.50495 4.625H6.10442C6.09983 4.62483 6.09523 4.62475 6.0906 4.62475C6.08597 4.62475 6.08137 4.62483 6.07678 4.625H4.66606C4.50503 4.08942 4.00802 3.699 3.41995 3.699ZM3.41995 4.449C3.72414 4.449 3.97095 4.6959 3.97095 5C3.97095 5.3041 3.72414 5.551 3.41995 5.551C3.11621 5.551 2.86945 5.30405 2.86945 5C2.86945 4.69595 3.11621 4.449 3.41995 4.449Z" fill="white"/>
</svg>
