<svg width="10" height="10" viewBox="0 0 10 10" fill="none" xmlns="http://www.w3.org/2000/svg">
<g clip-path="url(#clip0_5125_4626)">
<path d="M8.81426 1.36333L7.86259 0.380417C7.74572 0.260402 7.60605 0.164933 7.45179 0.0996089C7.29753 0.0342843 7.13178 0.000419346 6.96426 0L4.99967 0C4.51959 0.000606052 4.05439 0.166704 3.68249 0.470299C3.31058 0.773894 3.05471 1.19642 2.95801 1.66667H2.91634C2.36401 1.66733 1.83449 1.88703 1.44393 2.27759C1.05338 2.66815 0.833669 3.19767 0.833008 3.75V7.91667C0.833669 8.469 1.05338 8.99852 1.44393 9.38908C1.83449 9.77963 2.36401 9.99934 2.91634 10H5.41634C5.96867 9.99934 6.49819 9.77963 6.88875 9.38908C7.27931 8.99852 7.49901 8.469 7.49967 7.91667V7.875C7.96992 7.77829 8.39245 7.52243 8.69604 7.15052C8.99964 6.77862 9.16574 6.31342 9.16634 5.83333V2.23333C9.16697 1.90851 9.04062 1.5963 8.81426 1.36333ZM5.41634 9.16667H2.91634C2.58482 9.16667 2.26688 9.03497 2.03246 8.80055C1.79804 8.56613 1.66634 8.24819 1.66634 7.91667V3.75C1.66634 3.41848 1.79804 3.10054 2.03246 2.86612C2.26688 2.6317 2.58482 2.5 2.91634 2.5V5.83333C2.917 6.38566 3.13671 6.91518 3.52727 7.30574C3.91782 7.6963 4.44734 7.916 4.99967 7.91667H6.66634C6.66634 8.24819 6.53465 8.56613 6.30023 8.80055C6.0658 9.03497 5.74786 9.16667 5.41634 9.16667ZM7.08301 7.08333H4.99967C4.66815 7.08333 4.35021 6.95164 4.11579 6.71722C3.88137 6.4828 3.74967 6.16485 3.74967 5.83333V2.08333C3.74967 1.75181 3.88137 1.43387 4.11579 1.19945C4.35021 0.965029 4.66815 0.833333 4.99967 0.833333H6.66634V1.66667C6.66634 1.88768 6.75414 2.09964 6.91042 2.25592C7.0667 2.4122 7.27866 2.5 7.49967 2.5H8.33301V5.83333C8.33301 6.16485 8.20131 6.4828 7.96689 6.71722C7.73247 6.95164 7.41453 7.08333 7.08301 7.08333Z" fill="white"/>
</g>
<defs>
<clipPath id="clip0_5125_4626">
<rect width="10" height="10" fill="white"/>
</clipPath>
</defs>
</svg>
