<svg width="26" height="26" viewBox="0 0 26 26" fill="none" xmlns="http://www.w3.org/2000/svg">
<path fill-rule="evenodd" clip-rule="evenodd" d="M23.3177 10.5654C22.6253 6.30427 19.0059 3.13417 14.6907 3.00938C14.4855 3.00134 14.2855 3.07521 14.1349 3.21471C13.9842 3.35422 13.8952 3.5479 13.8875 3.75309V3.75309V3.8225L14.3733 11.091C14.4052 11.5803 14.8259 11.9522 15.3154 11.924L22.6037 11.4381C22.8091 11.4229 22.9999 11.3264 23.1339 11.1701C23.2679 11.0137 23.3341 10.8104 23.3177 10.6051V10.5654Z" stroke="white" stroke-width="1.5" stroke-linecap="round" stroke-linejoin="round"/>
<path d="M9.64334 7.33275C10.107 7.22551 10.5814 7.46273 10.7738 7.89797C10.8242 8.00034 10.8545 8.11142 10.863 8.2252C10.9622 9.63329 11.1704 12.7172 11.2894 14.3831C11.3097 14.6832 11.4488 14.9628 11.6758 15.1601C11.9029 15.3573 12.1992 15.456 12.4992 15.4342V15.4342L18.6174 15.0574C18.8905 15.041 19.1583 15.1382 19.3574 15.3259C19.5564 15.5137 19.669 15.7754 19.6685 16.049V16.049C19.4206 19.7436 16.7662 22.8322 13.1509 23.6328C9.53556 24.4334 5.82532 22.7542 4.04075 19.5097C3.50802 18.5759 3.17065 17.5436 3.04914 16.4754C2.99719 16.1476 2.97727 15.8155 2.98964 15.4838C3.00017 11.5383 5.77111 8.13871 9.63343 7.33275" stroke="white" stroke-width="1.5" stroke-linecap="round" stroke-linejoin="round"/>
</svg>
