<svg width="10" height="10" viewBox="0 0 10 10" fill="none" xmlns="http://www.w3.org/2000/svg">
<g clip-path="url(#clip0_5125_4640)">
<path d="M7.91699 9.99983H7.08366C6.97315 9.99983 6.86717 9.95593 6.78903 9.87779C6.71089 9.79965 6.66699 9.69367 6.66699 9.58316C6.66699 9.47266 6.71089 9.36668 6.78903 9.28854C6.86717 9.2104 6.97315 9.1665 7.08366 9.1665H7.91699C8.24851 9.1665 8.56645 9.0348 8.80087 8.80038C9.03529 8.56596 9.16699 8.24802 9.16699 7.9165V7.08317C9.16699 6.97266 9.21089 6.86668 9.28903 6.78854C9.36717 6.7104 9.47315 6.6665 9.58365 6.6665C9.69416 6.6665 9.80014 6.7104 9.87828 6.78854C9.95642 6.86668 10.0003 6.97266 10.0003 7.08317V7.9165C9.99966 8.46883 9.77995 8.99835 9.3894 9.38891C8.99884 9.77946 8.46932 9.99917 7.91699 9.99983Z" fill="white"/>
<path d="M0.416667 3.33333C0.30616 3.33333 0.200179 3.28943 0.122039 3.21129C0.0438987 3.13315 0 3.02717 0 2.91667V2.08333C0.000661607 1.531 0.220367 1.00148 0.610925 0.610925C1.00148 0.220367 1.531 0.000661607 2.08333 0L2.91667 0C3.02717 0 3.13315 0.0438987 3.21129 0.122039C3.28943 0.200179 3.33333 0.30616 3.33333 0.416667C3.33333 0.527174 3.28943 0.633154 3.21129 0.711294C3.13315 0.789435 3.02717 0.833333 2.91667 0.833333H2.08333C1.75181 0.833333 1.43387 0.965029 1.19945 1.19945C0.965029 1.43387 0.833333 1.75181 0.833333 2.08333V2.91667C0.833333 3.02717 0.789435 3.13315 0.711294 3.21129C0.633154 3.28943 0.527174 3.33333 0.416667 3.33333Z" fill="white"/>
<path d="M2.91667 9.99983H2.08333C1.531 9.99917 1.00148 9.77946 0.610925 9.38891C0.220367 8.99835 0.000661607 8.46883 0 7.9165L0 7.08317C0 6.97266 0.0438987 6.86668 0.122039 6.78854C0.200179 6.7104 0.30616 6.6665 0.416667 6.6665C0.527174 6.6665 0.633154 6.7104 0.711294 6.78854C0.789435 6.86668 0.833333 6.97266 0.833333 7.08317V7.9165C0.833333 8.24802 0.965029 8.56596 1.19945 8.80038C1.43387 9.0348 1.75181 9.1665 2.08333 9.1665H2.91667C3.02717 9.1665 3.13315 9.2104 3.21129 9.28854C3.28943 9.36668 3.33333 9.47266 3.33333 9.58316C3.33333 9.69367 3.28943 9.79965 3.21129 9.87779C3.13315 9.95593 3.02717 9.99983 2.91667 9.99983Z" fill="white"/>
<path d="M9.58365 3.33333C9.47315 3.33333 9.36717 3.28943 9.28903 3.21129C9.21089 3.13315 9.16699 3.02717 9.16699 2.91667V2.08333C9.16699 1.75181 9.03529 1.43387 8.80087 1.19945C8.56645 0.965029 8.24851 0.833333 7.91699 0.833333H7.08366C6.97315 0.833333 6.86717 0.789435 6.78903 0.711294C6.71089 0.633154 6.66699 0.527174 6.66699 0.416667C6.66699 0.30616 6.71089 0.200179 6.78903 0.122039C6.86717 0.0438987 6.97315 0 7.08366 0L7.91699 0C8.46932 0.000661607 8.99884 0.220367 9.3894 0.610925C9.77995 1.00148 9.99966 1.531 10.0003 2.08333V2.91667C10.0003 3.02717 9.95642 3.13315 9.87828 3.21129C9.80014 3.28943 9.69416 3.33333 9.58365 3.33333Z" fill="white"/>
</g>
<defs>
<clipPath id="clip0_5125_4640">
<rect width="10" height="10" fill="white"/>
</clipPath>
</defs>
</svg>
