<svg width="10" height="10" viewBox="0 0 10 10" fill="none" xmlns="http://www.w3.org/2000/svg">
<g clip-path="url(#clip0_5125_4613)">
<path d="M5.76845 7.19468L4.40929 8.55384C4.01467 8.93791 3.48471 9.15117 2.93406 9.14748C2.38341 9.14379 1.85635 8.92345 1.46692 8.53413C1.07748 8.1448 0.856992 7.61781 0.853147 7.06716C0.849302 6.51651 1.06241 5.98649 1.44637 5.59177L2.80554 4.23135C2.88367 4.15317 2.92754 4.04715 2.9275 3.93662C2.92746 3.82609 2.88351 3.72011 2.80533 3.64198C2.72715 3.56385 2.62113 3.51998 2.5106 3.52002C2.40007 3.52006 2.29408 3.564 2.21595 3.64219L0.857203 5.0026C0.30815 5.55193 -0.000195263 6.29687 9.27712e-08 7.07354C0.000195449 7.85021 0.308915 8.595 0.858245 9.14405C1.40757 9.6931 2.15252 10.0014 2.92919 10.0013C3.70586 10.0011 4.45065 9.69234 4.9997 9.14301L6.35887 7.78385C6.43477 7.70526 6.47677 7.60001 6.47582 7.49076C6.47487 7.38151 6.43105 7.27701 6.3538 7.19976C6.27654 7.1225 6.17204 7.07868 6.06279 7.07773C5.95354 7.07678 5.84829 7.11878 5.7697 7.19468H5.76845Z" fill="white"/>
<path d="M9.14337 0.85876C8.87223 0.585766 8.54962 0.369293 8.19422 0.221884C7.83882 0.0744742 7.45771 -0.00094019 7.07295 1.0267e-05C6.68839 -0.00101129 6.30745 0.0742095 5.95215 0.221323C5.59684 0.368437 5.27422 0.584525 5.00295 0.857094L3.6417 2.21668C3.56352 2.29481 3.51957 2.40079 3.51953 2.51132C3.51949 2.62185 3.56336 2.72787 3.64149 2.80605C3.71962 2.88424 3.82561 2.92818 3.93614 2.92822C4.04666 2.92826 4.15268 2.88439 4.23087 2.80626L5.59128 1.44709C5.78526 1.25195 6.01603 1.09722 6.27021 0.991868C6.5244 0.886517 6.79696 0.832636 7.07212 0.833344C7.48639 0.833481 7.89133 0.95644 8.23573 1.18668C8.58014 1.41691 8.84855 1.74409 9.00704 2.12685C9.16554 2.50961 9.20699 2.93077 9.12616 3.33708C9.04534 3.7434 8.84586 4.11663 8.55295 4.40959L7.19378 5.76876C7.1156 5.84694 7.07168 5.95298 7.07168 6.06355C7.07168 6.17412 7.1156 6.28016 7.19378 6.35834C7.27197 6.43653 7.37801 6.48045 7.48857 6.48045C7.59914 6.48045 7.70518 6.43653 7.78337 6.35834L9.14253 5.00001C9.69088 4.45047 9.99891 3.70589 9.99907 2.92956C9.99923 2.15323 9.6915 1.40852 9.14337 0.85876Z" fill="white"/>
<path d="M5.95533 3.45534L3.45533 5.95534C3.41553 5.99377 3.38379 6.03975 3.36195 6.09058C3.34012 6.14142 3.32862 6.19609 3.32814 6.25142C3.32766 6.30674 3.3382 6.36161 3.35915 6.41282C3.3801 6.46402 3.41104 6.51055 3.45016 6.54967C3.48929 6.58879 3.53581 6.61973 3.58701 6.64068C3.63822 6.66163 3.69309 6.67217 3.74841 6.67169C3.80374 6.67121 3.85841 6.65972 3.90925 6.63788C3.96008 6.61604 4.00606 6.5843 4.0445 6.5445L6.5445 4.04451C6.62039 3.96592 6.66239 3.86067 6.66144 3.75142C6.66049 3.64218 6.61667 3.53767 6.53942 3.46042C6.46217 3.38316 6.35766 3.33934 6.24841 3.33839C6.13916 3.33745 6.03391 3.37944 5.95533 3.45534Z" fill="white"/>
</g>
<defs>
<clipPath id="clip0_5125_4613">
<rect width="10" height="10" fill="white"/>
</clipPath>
</defs>
</svg>
