<svg width="12" height="13" viewBox="0 0 12 13" fill="none" xmlns="http://www.w3.org/2000/svg">
<g clip-path="url(#clip0_3864_31229)">
<path d="M11.5 6H9.46C9.42105 5.72452 9.34903 5.45474 9.2455 5.1965L11.009 4.1745C11.0679 4.14278 11.1199 4.09956 11.1618 4.04738C11.2038 3.99521 11.2348 3.93514 11.2531 3.87076C11.2713 3.80637 11.2765 3.73897 11.2682 3.67255C11.26 3.60613 11.2385 3.54205 11.205 3.48409C11.1715 3.42614 11.1267 3.37549 11.0733 3.33517C11.0199 3.29484 10.9589 3.26564 10.894 3.24931C10.8291 3.23299 10.7616 3.22985 10.6955 3.24011C10.6293 3.25036 10.5659 3.27379 10.509 3.309L8.744 4.3325C8.57527 4.11936 8.3825 3.92641 8.1695 3.7575L9.1925 1.992C9.2541 1.87753 9.2687 1.74356 9.2332 1.61851C9.1977 1.49345 9.11488 1.38714 9.00232 1.32211C8.88976 1.25708 8.75629 1.23845 8.63022 1.27017C8.50415 1.30188 8.39539 1.38145 8.327 1.492L7.3035 3.2545C7.0453 3.15086 6.7755 3.07884 6.5 3.04V1C6.5 0.867392 6.44732 0.740215 6.35355 0.646447C6.25979 0.552678 6.13261 0.5 6 0.5C5.86739 0.5 5.74021 0.552678 5.64645 0.646447C5.55268 0.740215 5.5 0.867392 5.5 1V3.04C5.2245 3.07884 4.9547 3.15086 4.6965 3.2545L3.6745 1.491C3.60611 1.38045 3.49735 1.30088 3.37128 1.26917C3.24521 1.23745 3.11174 1.25608 2.99918 1.32111C2.88662 1.38614 2.8038 1.49245 2.7683 1.61751C2.7328 1.74256 2.7474 1.87653 2.809 1.991L3.832 3.7575C3.619 3.92641 3.42623 4.11936 3.2575 4.3325L1.4925 3.309C1.43558 3.27379 1.37217 3.25036 1.30603 3.24011C1.23989 3.22985 1.17237 3.23299 1.10746 3.24931C1.04255 3.26564 0.981582 3.29484 0.928166 3.33517C0.87475 3.37549 0.829975 3.42614 0.796494 3.48409C0.763014 3.54205 0.74151 3.60613 0.733257 3.67255C0.725004 3.73897 0.73017 3.80637 0.748449 3.87076C0.766728 3.93514 0.797748 3.99521 0.83967 4.04738C0.881592 4.09956 0.933562 4.14278 0.9925 4.1745L2.7545 5.1965C2.65097 5.45474 2.57895 5.72452 2.54 6H0.5C0.367392 6 0.240215 6.05268 0.146447 6.14645C0.0526784 6.24021 0 6.36739 0 6.5C0 6.63261 0.0526784 6.75979 0.146447 6.85355C0.240215 6.94732 0.367392 7 0.5 7H2.54C2.57895 7.27548 2.65097 7.54526 2.7545 7.8035L0.991 8.8255C0.932062 8.85722 0.880092 8.90044 0.83817 8.95262C0.796248 9.00479 0.765228 9.06486 0.746949 9.12924C0.72867 9.19363 0.723504 9.26103 0.731757 9.32745C0.74001 9.39387 0.761514 9.45795 0.794994 9.51591C0.828475 9.57386 0.87325 9.62451 0.926666 9.66483C0.980082 9.70516 1.04105 9.73436 1.10596 9.75069C1.17087 9.76701 1.23839 9.77015 1.30453 9.75989C1.37067 9.74964 1.43408 9.72621 1.491 9.691L3.256 8.6675C3.42473 8.88064 3.6175 9.07359 3.8305 9.2425L2.809 11.008C2.7474 11.1225 2.7328 11.2564 2.7683 11.3815C2.8038 11.5065 2.88662 11.6129 2.99918 11.6779C3.11174 11.7429 3.24521 11.7615 3.37128 11.7298C3.49735 11.6981 3.60611 11.6186 3.6745 11.508L4.6965 9.7445C4.95473 9.84826 5.2245 9.92061 5.5 9.96V12C5.5 12.1326 5.55268 12.2598 5.64645 12.3536C5.74021 12.4473 5.86739 12.5 6 12.5C6.13261 12.5 6.25979 12.4473 6.35355 12.3536C6.44732 12.2598 6.5 12.1326 6.5 12V9.96C6.77546 9.92094 7.04522 9.84892 7.3035 9.7455L8.3255 11.509C8.39389 11.6196 8.50265 11.6991 8.62872 11.7308C8.75479 11.7625 8.88826 11.7439 9.00082 11.6789C9.11338 11.6139 9.1962 11.5075 9.2317 11.3825C9.2672 11.2574 9.2526 11.1235 9.191 11.009L8.168 9.2435C8.381 9.07459 8.57377 8.88164 8.7425 8.6685L10.5075 9.692C10.5644 9.72721 10.6278 9.75064 10.694 9.76089C10.7601 9.77115 10.8276 9.76801 10.8925 9.75169C10.9574 9.73536 11.0184 9.70616 11.0718 9.66583C11.1253 9.62551 11.17 9.57486 11.2035 9.51691C11.237 9.45895 11.2585 9.39487 11.2667 9.32845C11.275 9.26203 11.2698 9.19463 11.2516 9.13024C11.2333 9.06586 11.2023 9.0058 11.1603 8.95362C11.1184 8.90144 11.0664 8.85822 11.0075 8.8265L9.244 7.8045C9.34812 7.546 9.42064 7.27588 9.46 7H11.5C11.6326 7 11.7598 6.94732 11.8536 6.85355C11.9473 6.75979 12 6.63261 12 6.5C12 6.36739 11.9473 6.24021 11.8536 6.14645C11.7598 6.05268 11.6326 6 11.5 6ZM6 9C2.696 8.895 2.697 4.1045 6 4C9.304 4.105 9.303 8.8955 6 9Z" fill="black"/>
</g>
<defs>
<clipPath id="clip0_3864_31229">
<rect width="12" height="12" fill="white" transform="translate(0 0.5)"/>
</clipPath>
</defs>
</svg>
