<svg width="30" height="30" viewBox="0 0 30 30" fill="none" xmlns="http://www.w3.org/2000/svg">
<path d="M9.86338 20.4782H7.22294C5.95103 20.4782 5.09338 19.6087 4.92 18.174C4.6725 16.4084 4.69632 13.2187 4.92 11.416C5.09338 10.1719 5.95103 9.19248 7.22294 9.19248H9.86338L14.505 5.39528C14.9113 5.04984 15.6141 4.72425 16.0416 4.73351C16.9456 4.70572 17.7834 5.36351 18.105 6.4369C18.2824 7.12116 18.3313 7.91925 18.4213 8.65778C18.5113 9.37645 18.5643 9.3116 18.5788 11.4782" stroke="white" stroke-width="1.5" stroke-linecap="round" stroke-linejoin="round"/>
<path d="M18.5749 17.7393C18.551 19.4096 18.4941 20.426 18.4213 21.0123C18.3313 21.7509 18.3049 22.4801 18.105 23.2319C17.7834 24.3066 16.9456 24.9631 16.0416 24.9353C15.6141 24.9459 15.0093 24.6851 14.6029 24.341L12.8572 22.9169" stroke="white" stroke-width="1.5" stroke-linecap="round" stroke-linejoin="round"/>
<path d="M26.2446 4.11743L4.81001 25.552" stroke="white" stroke-width="1.5" stroke-linecap="round" stroke-linejoin="round"/>
</svg>
