<svg width="16" height="16" viewBox="0 0 16 16" fill="none" xmlns="http://www.w3.org/2000/svg">
<path id="Vector" d="M14.4156 9.36812L3.10978 15.6722C2.87138 15.8049 2.60247 15.8731 2.32965 15.8699C2.05683 15.8667 1.78957 15.7924 1.55432 15.6542C1.31908 15.516 1.124 15.3187 0.988409 15.082C0.852816 14.8452 0.781407 14.5771 0.78125 14.3043V1.69609C0.781338 1.42315 0.852733 1.15497 0.988363 0.918119C1.12399 0.681265 1.31915 0.483954 1.55451 0.345735C1.78986 0.207516 2.05724 0.133185 2.33016 0.130105C2.60308 0.127024 2.87207 0.195302 3.11049 0.328174L14.4156 6.63157C14.6592 6.76743 14.8622 6.96588 15.0035 7.20642C15.1448 7.44697 15.2193 7.72088 15.2193 7.99985C15.2193 8.27882 15.1448 8.55273 15.0035 8.79327C14.8622 9.03381 14.6592 9.23227 14.4156 9.36812Z" fill="white"/>
</svg>
