<svg width="26" height="26" viewBox="0 0 26 26" fill="none" xmlns="http://www.w3.org/2000/svg">
<path d="M19.0613 11.8432C20.7971 11.8432 22.2053 10.436 22.2053 8.70015C22.2053 6.96429 20.7971 5.55713 19.0613 5.55713" stroke="white" stroke-width="1.5" stroke-linecap="round" stroke-linejoin="round"/>
<path d="M20.5066 15.2588C21.025 15.2945 21.5404 15.368 22.0478 15.4822C22.7529 15.6203 23.601 15.9092 23.9028 16.5418C24.0955 16.947 24.0955 17.4187 23.9028 17.8248C23.6019 18.4574 22.7529 18.7454 22.0478 18.8904" stroke="white" stroke-width="1.5" stroke-linecap="round" stroke-linejoin="round"/>
<path d="M6.81418 11.8432C5.07832 11.8432 3.67017 10.436 3.67017 8.70015C3.67017 6.96429 5.07832 5.55713 6.81418 5.55713" stroke="white" stroke-width="1.5" stroke-linecap="round" stroke-linejoin="round"/>
<path d="M5.36886 15.2588C4.85049 15.2945 4.33509 15.368 3.82764 15.4822C3.12257 15.6203 2.2745 15.9092 1.9736 16.5418C1.77996 16.947 1.77996 17.4187 1.9736 17.8248C2.27351 18.4574 3.12257 18.7454 3.82764 18.8904" stroke="white" stroke-width="1.5" stroke-linecap="round" stroke-linejoin="round"/>
<path fill-rule="evenodd" clip-rule="evenodd" d="M12.9325 15.9355C16.4499 15.9355 19.4549 16.4678 19.4549 18.5979C19.4549 20.727 16.4698 21.2792 12.9325 21.2792C9.41415 21.2792 6.41016 20.7469 6.41016 18.6168C6.41016 16.4867 9.39528 15.9355 12.9325 15.9355Z" stroke="white" stroke-width="1.5" stroke-linecap="round" stroke-linejoin="round"/>
<path fill-rule="evenodd" clip-rule="evenodd" d="M12.9327 12.8972C10.6129 12.8972 8.75293 11.0372 8.75293 8.71639C8.75293 6.39661 10.6129 4.53662 12.9327 4.53662C15.2525 4.53662 17.1125 6.39661 17.1125 8.71639C17.1125 11.0372 15.2525 12.8972 12.9327 12.8972Z" stroke="white" stroke-width="1.5" stroke-linecap="round" stroke-linejoin="round"/>
</svg>
