<svg width="24" height="26" viewBox="0 0 24 26" fill="none" xmlns="http://www.w3.org/2000/svg">
<path fill-rule="evenodd" clip-rule="evenodd" d="M7.48638 23.2916H15.8342C18.9006 23.2916 21.253 22.0918 20.5848 17.2627L19.8067 10.718C19.3948 8.30843 17.9761 7.38623 16.7312 7.38623H6.55274C5.28958 7.38623 3.9532 8.37784 3.47723 10.718L2.69919 17.2627C2.13169 21.5464 4.42002 23.2916 7.48638 23.2916Z" stroke="white" stroke-width="1.5" stroke-linecap="round" stroke-linejoin="round"/>
<path d="M7.34902 7.14821C7.34902 4.5633 9.28331 2.46782 11.6694 2.46782V2.46782C12.8184 2.46254 13.922 2.95332 14.7362 3.83164C15.5504 4.70996 16.0081 5.90345 16.0081 7.14821V7.14821" stroke="white" stroke-width="1.5" stroke-linecap="round" stroke-linejoin="round"/>
<path d="M8.70378 12.0271H8.74954" stroke="white" stroke-width="1.5" stroke-linecap="round" stroke-linejoin="round"/>
<path d="M14.5343 12.0271H14.5801" stroke="white" stroke-width="1.5" stroke-linecap="round" stroke-linejoin="round"/>
</svg>
