<svg width="30" height="30" viewBox="0 0 30 30" fill="none" xmlns="http://www.w3.org/2000/svg">
<path fill-rule="evenodd" clip-rule="evenodd" d="M15.5893 21.4273C15.4999 22.1597 15.4736 22.8802 15.2737 23.6257C14.9555 24.6881 14.1233 25.3379 13.2252 25.3117C12.7993 25.3222 12.1997 25.0628 11.7961 24.7235L7.08774 20.8994H4.46471C3.19987 20.8994 2.34788 20.0373 2.17564 18.6172C1.92977 16.8695 1.95344 13.7122 2.17564 11.9292C2.34788 10.6977 3.19987 9.72694 4.46471 9.72694H7.08774L11.6988 5.96831C12.1024 5.62637 12.7993 5.30409 13.2252 5.31326C14.1233 5.28706 14.9555 5.93817 15.2737 6.99934C15.4512 7.67797 15.4999 8.46664 15.5893 9.19898C15.8036 10.9113 15.8036 19.715 15.5893 21.4273Z" stroke="#F8F8F8" stroke-width="1.5" stroke-linecap="round" stroke-linejoin="round"/>
<path d="M20.5543 8.82568C21.6893 10.4582 22.3705 12.6482 22.3705 15.0857C22.3705 17.5232 21.6893 19.7119 20.5543 21.3444" stroke="#F8F8F8" stroke-width="1.5" stroke-linecap="round" stroke-linejoin="round"/>
<path d="M24.8431 5C26.6719 7.63 27.7694 11.1575 27.7694 15.085C27.7694 19.0125 26.6719 22.5412 24.8431 25.1712" stroke="#F8F8F8" stroke-width="1.5" stroke-linecap="round" stroke-linejoin="round"/>
</svg>
