<svg width="27" height="26" viewBox="0 0 27 26" fill="none" xmlns="http://www.w3.org/2000/svg">
<path fill-rule="evenodd" clip-rule="evenodd" d="M8.96083 2.1665H18.0403C21.3867 2.1665 23.25 4.09484 23.25 7.399V18.5898C23.25 21.9482 21.3867 23.8332 18.0403 23.8332H8.96083C5.6675 23.8332 3.75 21.9482 3.75 18.5898V7.399C3.75 4.09484 5.6675 2.1665 8.96083 2.1665ZM9.25333 7.21484V7.204H12.4914C12.9583 7.204 13.3375 7.58317 13.3375 8.04792C13.3375 8.52567 12.9583 8.90484 12.4914 8.90484H9.25333C8.78642 8.90484 8.40833 8.52567 8.40833 8.05984C8.40833 7.594 8.78642 7.21484 9.25333 7.21484ZM9.25333 13.8015H17.7467C18.2125 13.8015 18.5917 13.4223 18.5917 12.9565C18.5917 12.4907 18.2125 12.1104 17.7467 12.1104H9.25333C8.78642 12.1104 8.40833 12.4907 8.40833 12.9565C8.40833 13.4223 8.78642 13.8015 9.25333 13.8015ZM9.25333 18.7523H17.7467C18.1789 18.709 18.505 18.3396 18.505 17.9073C18.505 17.4632 18.1789 17.0948 17.7467 17.0515H9.25333C8.92833 17.019 8.61417 17.1707 8.44083 17.4523C8.2675 17.7232 8.2675 18.0807 8.44083 18.3623C8.61417 18.6332 8.92833 18.7957 9.25333 18.7523Z" fill="white"/>
</svg>
