<svg width="27" height="26" viewBox="0 0 27 26" fill="none" xmlns="http://www.w3.org/2000/svg">
<path fill-rule="evenodd" clip-rule="evenodd" d="M19.1114 4.77734C19.1114 3.3365 20.2814 2.1665 21.7222 2.1665C23.163 2.1665 24.333 3.3365 24.333 4.77734C24.333 6.21817 23.163 7.38817 21.7222 7.38817C20.2814 7.38817 19.1114 6.21817 19.1114 4.77734ZM14.9404 15.9891L18.0713 11.9493L18.0279 11.971C18.2013 11.7327 18.2338 11.4293 18.1146 11.1585C17.9965 10.8877 17.7354 10.7035 17.4548 10.6818C17.1613 10.6493 16.8698 10.7793 16.6954 11.0177L14.0748 14.4085L11.0729 12.0468C10.8888 11.906 10.6721 11.8507 10.4554 11.8735C10.2398 11.906 10.0448 12.0241 9.91376 12.1974L6.70818 16.3693L6.64209 16.4668C6.45793 16.8124 6.54459 17.2566 6.86959 17.496C7.02126 17.5935 7.18376 17.6585 7.36793 17.6585C7.61818 17.6693 7.85543 17.5382 8.00709 17.3335L10.7263 13.8332L13.8138 16.1527L13.9113 16.2166C14.2579 16.4007 14.6913 16.3152 14.9404 15.9891ZM17.2371 4.09516C17.1938 4.366 17.1721 4.63683 17.1721 4.90766C17.1721 7.34516 19.1438 9.31575 21.5704 9.31575C21.8413 9.31575 22.1013 9.28433 22.3721 9.241V17.9824C22.3721 21.656 20.2054 23.8335 16.5221 23.8335H8.51734C4.83293 23.8335 2.66626 21.656 2.66626 17.9824V9.96683C2.66626 6.2835 4.83293 4.09516 8.51734 4.09516H17.2371Z" fill="white"/>
</svg>
