<svg width="25" height="26" viewBox="0 0 25 26" fill="none" xmlns="http://www.w3.org/2000/svg">
<path fill-rule="evenodd" clip-rule="evenodd" d="M12.8264 2.39364C12.9861 2.23835 13.1973 2.15696 13.4135 2.1674C17.9843 2.31563 21.8044 5.91029 22.4967 10.7147C22.5011 10.7434 22.5011 10.7726 22.4967 10.8013C22.5116 11.0286 22.4407 11.2529 22.2996 11.4245C22.1586 11.5961 21.959 11.7009 21.7451 11.7157L14.0656 12.2644C13.8116 12.2888 13.5597 12.1982 13.3718 12.015C13.1839 11.8318 13.0774 11.5729 13.0785 11.3018L12.5623 3.12993V2.99518C12.5717 2.76534 12.6667 2.54892 12.8264 2.39364ZM12.2997 14.4012L18.9558 13.9392L19.0011 13.9584C19.2869 13.9635 19.5591 14.089 19.7579 14.3075C19.9566 14.5259 20.0655 14.8193 20.0606 15.1231C19.7984 19.2637 16.9962 22.7233 13.1828 23.6146C9.36938 24.5059 5.46017 22.6149 3.58778 18.9732C3.03722 17.9244 2.6893 16.7692 2.56445 15.5755C2.51603 15.2218 2.49483 14.8644 2.50106 14.5071C2.51368 10.1042 5.40728 6.30382 9.45607 5.37263C9.9462 5.27325 10.4376 5.53836 10.6515 6.01753C10.7047 6.10448 10.7473 6.19828 10.7782 6.29666C10.8541 7.56589 10.9329 8.8231 11.0113 10.075C11.0732 11.0637 11.1349 12.049 11.1948 13.0344C11.1917 13.2665 11.2254 13.4975 11.2944 13.7178C11.4569 14.1511 11.8614 14.4261 12.2997 14.4012Z" fill="white"/>
</svg>
