<svg width="28" height="24" viewBox="0 0 28 24" fill="none" xmlns="http://www.w3.org/2000/svg">
<g id="Scan">
<path id="Scan_2" fill-rule="evenodd" clip-rule="evenodd" d="M9.53463 0.75C10.0596 0.75 10.4859 1.16798 10.4859 1.68402C10.4859 2.19884 10.0609 2.61682 9.53463 2.61682L7.49837 2.61804C5.80837 2.6205 4.43337 3.97005 4.43337 5.62849V7.95251C4.43337 8.46733 4.00587 8.88653 3.48088 8.88653C2.95587 8.88653 2.52962 8.46733 2.52962 7.95251V5.62849C2.52962 2.94164 4.75838 0.753677 7.49712 0.751226L9.53337 0.75H9.53463ZM18.5007 0.750368H20.492C23.2382 0.750368 25.4707 2.93956 25.4707 5.63253V7.95288C25.4707 8.46769 25.0457 8.8869 24.5195 8.8869C23.9945 8.8869 23.5682 8.46769 23.5682 7.95288V5.63253C23.5682 3.96919 22.1882 2.61596 20.492 2.61596H18.5007C17.9757 2.61596 17.5495 2.1992 17.5495 1.68439C17.5495 1.16835 17.9757 0.750368 18.5007 0.750368ZM17.4531 5.42832H10.5481C8.96813 5.44426 7.69812 6.71046 7.71187 8.26103V9.81773C7.71562 9.99915 7.86438 10.1475 8.04938 10.1536H19.9494C20.1356 10.1487 20.2844 10.0004 20.2906 9.81773V8.26103C20.2919 7.5121 19.9969 6.79258 19.4644 6.25693C18.9356 5.72618 18.2094 5.42832 17.4531 5.42832ZM1.2025 12.0515H26.7987C27.3237 12.0515 27.75 12.4695 27.75 12.9856C27.75 13.5004 27.3237 13.9171 26.7987 13.9171H25.4713V18.3666C25.4713 21.0608 23.2375 23.25 20.4925 23.25H18.5012C17.975 23.25 17.5487 22.832 17.5487 22.316C17.5487 21.8012 17.975 21.3832 18.5012 21.3832H20.4925C22.1888 21.3832 23.5688 20.0312 23.5688 18.3666V13.9171H20.29V15.1564C20.3025 16.7069 19.0338 17.9744 17.4525 17.9891H10.5475C8.9675 17.9744 7.69875 16.7069 7.71125 15.1564V13.9171H4.4325V18.3715C4.4325 20.03 5.80875 21.3795 7.5 21.382L9.535 21.3832C10.06 21.3832 10.4862 21.8012 10.4862 22.316C10.485 22.832 10.06 23.25 9.53375 23.25L7.4975 23.2488C4.75875 23.2463 2.52875 21.0584 2.52875 18.3715V13.9171H1.2025C0.6775 13.9171 0.25 13.5004 0.25 12.9856C0.25 12.4695 0.6775 12.0515 1.2025 12.0515Z" fill="white"/>
</g>
</svg>
