<svg width="25" height="26" viewBox="0 0 25 26" fill="none" xmlns="http://www.w3.org/2000/svg">
<path fill-rule="evenodd" clip-rule="evenodd" d="M17.4303 7.58317C17.4621 7.50639 17.477 7.42272 17.4739 7.33869H17.5C17.3882 4.44791 15.1849 2.1665 12.5049 2.1665C9.825 2.1665 7.62172 4.44791 7.50989 7.33869C7.4967 7.41956 7.4967 7.5023 7.50989 7.58317H7.43171C6.15022 7.58317 4.78034 8.49964 4.38264 10.9633L3.6049 17.6741C2.96858 22.6014 5.31062 23.8332 8.36853 23.8332H16.6585C19.7075 23.8332 21.9789 22.0495 21.4133 17.6741L20.6444 10.9633C20.176 8.56862 18.8503 7.58317 17.5865 7.58317H17.4303ZM15.9932 7.58317C15.9654 7.50511 15.9506 7.42233 15.9497 7.33869C15.9497 5.2614 14.3899 3.57742 12.4657 3.57742C10.5416 3.57742 8.98184 5.2614 8.98184 7.33869C8.99502 7.41956 8.99502 7.5023 8.98184 7.58317H15.9932ZM9.597 13.1608C9.10889 13.1608 8.71321 12.7196 8.71321 12.1753C8.71321 11.6311 9.10889 11.1899 9.597 11.1899C10.0851 11.1899 10.4808 11.6311 10.4808 12.1753C10.4808 12.7196 10.0851 13.1608 9.597 13.1608ZM14.502 12.1753C14.502 12.7196 14.8977 13.1608 15.3858 13.1608C15.8739 13.1608 16.2696 12.7196 16.2696 12.1753C16.2696 11.6311 15.8739 11.1899 15.3858 11.1899C14.8977 11.1899 14.502 11.6311 14.502 12.1753Z" fill="white"/>
</svg>
